<svg width="294" height="293" viewBox="0 0 294 293" fill="none" xmlns="http://www.w3.org/2000/svg">
<rect width="294" height="293" rx="14" fill="black"/>
<path d="M154.09 96.91C157.39 96.91 160.06 97.42 162.1 98.44C164.2 99.4 165.82 100.57 166.96 101.95C168.1 103.27 168.85 104.65 169.21 106.09C169.63 107.47 169.84 108.58 169.84 109.42C169.84 111.28 169.24 113.29 168.04 115.45C166.84 117.61 165.31 119.89 163.45 122.29C161.65 124.63 159.7 127.03 157.6 129.49C155.5 131.89 153.52 134.26 151.66 136.6C149.86 138.88 148.36 141.1 147.16 143.26C145.96 145.42 145.36 147.4 145.36 149.2L148.33 148.93C148.57 149.89 148.69 150.79 148.69 151.63C148.69 152.35 148.6 153.07 148.42 153.79C148.24 154.51 147.85 155.05 147.25 155.41C146.65 155.83 145.75 155.86 144.55 155.5C143.35 155.08 142.15 154.33 140.95 153.25C139.75 152.17 138.7 150.79 137.8 149.11C136.9 147.37 136.45 145.39 136.45 143.17C136.45 141.31 136.96 139.15 137.98 136.69C139.06 134.17 140.38 131.62 141.94 129.04C143.5 126.4 145.18 123.79 146.98 121.21C148.84 118.57 150.55 116.2 152.11 114.1C153.67 111.94 154.96 110.14 155.98 108.7C157.06 107.26 157.6 106.36 157.6 106C157.6 105.82 156.85 105.97 155.35 106.45C153.85 106.87 152.05 107.68 149.95 108.88C147.91 110.08 145.81 111.67 143.65 113.65C141.55 115.63 139.87 118.06 138.61 120.94C137.59 122.26 136.42 123.01 135.1 123.19C133.84 123.31 132.64 123.19 131.5 122.83C130.36 122.41 129.4 121.87 128.62 121.21C127.9 120.49 127.54 119.95 127.54 119.59C127.6 118.09 128.29 116.08 129.61 113.56C130.93 110.98 132.76 108.46 135.1 106C137.44 103.54 140.2 101.41 143.38 99.61C146.62 97.81 150.19 96.91 154.09 96.91ZM136.63 161.26C138.13 160.24 139.66 159.52 141.22 159.1C142.54 158.74 143.92 158.68 145.36 158.92C146.86 159.16 148.21 160.03 149.41 161.53C149.65 162.31 149.68 163.27 149.5 164.41C149.38 165.55 149.17 166.66 148.87 167.74C148.63 168.82 148.39 169.75 148.15 170.53C147.91 171.31 147.79 171.76 147.79 171.88C147.73 172.24 147.4 172.6 146.8 172.96C146.2 173.32 145.48 173.62 144.64 173.86C143.86 174.16 143.02 174.34 142.12 174.4C141.22 174.46 140.41 174.34 139.69 174.04C138.85 172.78 138.28 171.49 137.98 170.17C137.74 168.85 137.59 167.62 137.53 166.48C137.47 165.28 137.41 164.23 137.35 163.33C137.29 162.43 137.05 161.74 136.63 161.26Z" fill="white"/>
</svg>
